<?xml version="1.0" encoding="UTF-8"?>
<svg width="22px" height="24px" viewBox="0 0 22 24" version="1.1" xmlns="http://www.w3.org/2000/svg" xmlns:xlink="http://www.w3.org/1999/xlink">
    <!-- Generator: Sketch 52.4 (67378) - http://www.bohemiancoding.com/sketch -->
    <title>Regular/calendar-alt</title>
    <desc>Created with Sketch.</desc>
    <defs>
        <path d="M8.4375,13.5 L6.5625,13.5 C6.253125,13.5 6,13.246875 6,12.9375 L6,11.0625 C6,10.753125 6.253125,10.5 6.5625,10.5 L8.4375,10.5 C8.746875,10.5 9,10.753125 9,11.0625 L9,12.9375 C9,13.246875 8.746875,13.5 8.4375,13.5 Z M13.5,12.9375 L13.5,11.0625 C13.5,10.753125 13.246875,10.5 12.9375,10.5 L11.0625,10.5 C10.753125,10.5 10.5,10.753125 10.5,11.0625 L10.5,12.9375 C10.5,13.246875 10.753125,13.5 11.0625,13.5 L12.9375,13.5 C13.246875,13.5 13.5,13.246875 13.5,12.9375 Z M18,12.9375 L18,11.0625 C18,10.753125 17.746875,10.5 17.4375,10.5 L15.5625,10.5 C15.253125,10.5 15,10.753125 15,11.0625 L15,12.9375 C15,13.246875 15.253125,13.5 15.5625,13.5 L17.4375,13.5 C17.746875,13.5 18,13.246875 18,12.9375 Z M13.5,17.4375 L13.5,15.5625 C13.5,15.253125 13.246875,15 12.9375,15 L11.0625,15 C10.753125,15 10.5,15.253125 10.5,15.5625 L10.5,17.4375 C10.5,17.746875 10.753125,18 11.0625,18 L12.9375,18 C13.246875,18 13.5,17.746875 13.5,17.4375 Z M9,17.4375 L9,15.5625 C9,15.253125 8.746875,15 8.4375,15 L6.5625,15 C6.253125,15 6,15.253125 6,15.5625 L6,17.4375 C6,17.746875 6.253125,18 6.5625,18 L8.4375,18 C8.746875,18 9,17.746875 9,17.4375 Z M18,17.4375 L18,15.5625 C18,15.253125 17.746875,15 17.4375,15 L15.5625,15 C15.253125,15 15,15.253125 15,15.5625 L15,17.4375 C15,17.746875 15.253125,18 15.5625,18 L17.4375,18 C17.746875,18 18,17.746875 18,17.4375 Z M22.5,5.25 L22.5,21.75 C22.5,22.9921875 21.4921875,24 20.25,24 L3.75,24 C2.5078125,24 1.5,22.9921875 1.5,21.75 L1.5,5.25 C1.5,4.0078125 2.5078125,3 3.75,3 L6,3 L6,0.5625 C6,0.253125 6.253125,0 6.5625,0 L8.4375,0 C8.746875,0 9,0.253125 9,0.5625 L9,3 L15,3 L15,0.5625 C15,0.253125 15.253125,0 15.5625,0 L17.4375,0 C17.746875,0 18,0.253125 18,0.5625 L18,3 L20.25,3 C21.4921875,3 22.5,4.0078125 22.5,5.25 Z M20.25,21.46875 L20.25,7.5 L3.75,7.5 L3.75,21.46875 C3.75,21.6234375 3.8765625,21.75 4.03125,21.75 L19.96875,21.75 C20.1234375,21.75 20.25,21.6234375 20.25,21.46875 Z" id="path-1"></path>
    </defs>
    <g id="UI-Design" stroke="none" stroke-width="1" fill="none" fill-rule="evenodd">
        <g id="Icons" transform="translate(-296.000000, -176.000000)">
            <g id="Regular/calendar-alt" transform="translate(295.000000, 176.000000)">
                <mask id="mask-2" fill="white">
                    <use xlink:href="#path-1"></use>
                </mask>
                <g id="Mask"></g>
                <g id="Color/White" mask="url(#mask-2)" fill="#FFFFFF" fill-rule="evenodd">
                    <rect id="White" x="0" y="0" width="24" height="24"></rect>
                </g>
            </g>
        </g>
    </g>
</svg>